<mxfile host="app.diagrams.net" modified="2023-12-01T13:15:39.028Z" agent="Mozilla/5.0 (Windows NT 10.0; Win64; x64) AppleWebKit/537.36 (KHTML, like Gecko) Chrome/119.0.0.0 Safari/537.36" etag="9N6X-HgD8vKUgXsND0_G" version="22.1.5" type="github">
  <diagram name="StrÃ¡nka-1" id="951FYTE5dDydaC981Dtf">
    <mxGraphModel dx="1431" dy="748" grid="1" gridSize="10" guides="1" tooltips="1" connect="1" arrows="1" fold="1" page="1" pageScale="1" pageWidth="827" pageHeight="1169" math="0" shadow="0">
      <root>
        <mxCell id="0" />
        <mxCell id="1" parent="0" />
        <mxCell id="JmXJE_Q1yOTrepqEHo0f-1" value="" style="rounded=0;whiteSpace=wrap;html=1;" parent="1" vertex="1">
          <mxGeometry x="330" y="370" width="120" height="60" as="geometry" />
        </mxCell>
        <mxCell id="J4Ba_1ifq-t-_J1fq2xJ-2" value="" style="edgeStyle=orthogonalEdgeStyle;rounded=0;orthogonalLoop=1;jettySize=auto;html=1;" parent="1" source="JmXJE_Q1yOTrepqEHo0f-2" target="J4Ba_1ifq-t-_J1fq2xJ-1" edge="1">
          <mxGeometry relative="1" as="geometry" />
        </mxCell>
        <mxCell id="JmXJE_Q1yOTrepqEHo0f-2" value="Actor" style="shape=umlActor;verticalLabelPosition=bottom;verticalAlign=top;html=1;outlineConnect=0;" parent="1" vertex="1">
          <mxGeometry x="330" y="350" width="30" height="60" as="geometry" />
        </mxCell>
        <mxCell id="J4Ba_1ifq-t-_J1fq2xJ-1" value="" style="ellipse;whiteSpace=wrap;html=1;verticalAlign=top;" parent="1" vertex="1">
          <mxGeometry x="305" y="470" width="80" height="80" as="geometry" />
        </mxCell>
      </root>
    </mxGraphModel>
  </diagram>
</mxfile>
